<svg width="124" height="54" viewBox="0 0 124 54" fill="none" xmlns="http://www.w3.org/2000/svg">
<path d="M6.911 24.189C6.519 24.189 6.197 24.098 5.945 23.916C5.707 23.734 5.553 23.489 5.483 23.181C5.427 22.873 5.49 22.53 5.672 22.152L11.048 10.371C11.272 9.895 11.538 9.552 11.846 9.342C12.154 9.118 12.511 9.006 12.917 9.006C13.323 9.006 13.68 9.118 13.988 9.342C14.296 9.552 14.555 9.895 14.765 10.371L20.183 22.152C20.365 22.53 20.428 22.88 20.372 23.202C20.33 23.51 20.19 23.755 19.952 23.937C19.714 24.105 19.406 24.189 19.028 24.189C18.552 24.189 18.181 24.077 17.915 23.853C17.663 23.629 17.439 23.279 17.243 22.803L15.983 19.884L17.285 20.787H8.528L9.83 19.884L8.591 22.803C8.381 23.293 8.157 23.65 7.919 23.874C7.695 24.084 7.359 24.189 6.911 24.189ZM12.875 12.66L10.187 19.065L9.62 18.246H16.193L15.626 19.065L12.917 12.66H12.875ZM23.9255 27.969C23.4075 27.969 23.0085 27.829 22.7285 27.549C22.4625 27.283 22.3295 26.884 22.3295 26.352V15.117C22.3295 14.599 22.4625 14.207 22.7285 13.941C23.0085 13.661 23.3935 13.521 23.8835 13.521C24.4015 13.521 24.7935 13.661 25.0595 13.941C25.3255 14.207 25.4585 14.599 25.4585 15.117V16.545L25.2275 15.726C25.4375 15.054 25.8575 14.515 26.4875 14.109C27.1315 13.689 27.8665 13.479 28.6925 13.479C29.5885 13.479 30.3725 13.696 31.0445 14.13C31.7305 14.564 32.2625 15.18 32.6405 15.978C33.0185 16.776 33.2075 17.728 33.2075 18.834C33.2075 19.94 33.0185 20.899 32.6405 21.711C32.2625 22.523 31.7375 23.146 31.0655 23.58C30.3935 24.014 29.6025 24.231 28.6925 24.231C27.8805 24.231 27.1595 24.035 26.5295 23.643C25.8995 23.237 25.4725 22.712 25.2485 22.068H25.5005V26.352C25.5005 26.884 25.3605 27.283 25.0805 27.549C24.8145 27.829 24.4295 27.969 23.9255 27.969ZM27.7475 21.858C28.1955 21.858 28.5875 21.746 28.9235 21.522C29.2735 21.298 29.5395 20.969 29.7215 20.535C29.9175 20.087 30.0155 19.52 30.0155 18.834C30.0155 17.812 29.8055 17.063 29.3855 16.587C28.9655 16.097 28.4195 15.852 27.7475 15.852C27.2995 15.852 26.9005 15.957 26.5505 16.167C26.2145 16.377 25.9485 16.706 25.7525 17.154C25.5565 17.588 25.4585 18.148 25.4585 18.834C25.4585 19.856 25.6685 20.619 26.0885 21.123C26.5085 21.613 27.0615 21.858 27.7475 21.858ZM37.0429 24.189C36.5249 24.189 36.1259 24.049 35.8459 23.769C35.5799 23.489 35.4469 23.09 35.4469 22.572V15.117C35.4469 14.599 35.5799 14.207 35.8459 13.941C36.1259 13.661 36.5109 13.521 37.0009 13.521C37.5049 13.521 37.8899 13.661 38.1559 13.941C38.4219 14.207 38.5549 14.599 38.5549 15.117V16.314L38.3239 15.621C38.6459 14.935 39.1219 14.41 39.7519 14.046C40.3959 13.668 41.1239 13.479 41.9359 13.479C42.7619 13.479 43.4409 13.64 43.9729 13.962C44.5049 14.27 44.9039 14.746 45.1699 15.39C45.4359 16.02 45.5689 16.825 45.5689 17.805V22.572C45.5689 23.09 45.4289 23.489 45.1489 23.769C44.8829 24.049 44.4909 24.189 43.9729 24.189C43.4689 24.189 43.0769 24.049 42.7969 23.769C42.5309 23.489 42.3979 23.09 42.3979 22.572V17.952C42.3979 17.238 42.2649 16.727 41.9989 16.419C41.7469 16.097 41.3549 15.936 40.8229 15.936C40.1509 15.936 39.6119 16.146 39.2059 16.566C38.8139 16.986 38.6179 17.546 38.6179 18.246V22.572C38.6179 23.65 38.0929 24.189 37.0429 24.189ZM51.7222 24.231C50.9662 24.231 50.2872 24.084 49.6852 23.79C49.0832 23.496 48.6142 23.097 48.2782 22.593C47.9422 22.089 47.7742 21.522 47.7742 20.892C47.7742 20.136 47.9702 19.541 48.3622 19.107C48.7542 18.659 49.3912 18.344 50.2732 18.162C51.1552 17.966 52.3242 17.868 53.7802 17.868H54.8932V19.506H53.8012C53.0872 19.506 52.5062 19.548 52.0582 19.632C51.6242 19.702 51.3092 19.828 51.1132 20.01C50.9312 20.192 50.8402 20.444 50.8402 20.766C50.8402 21.158 50.9732 21.48 51.2392 21.732C51.5192 21.984 51.9182 22.11 52.4362 22.11C52.8422 22.11 53.1992 22.019 53.5072 21.837C53.8292 21.641 54.0812 21.382 54.2632 21.06C54.4452 20.724 54.5362 20.346 54.5362 19.926V17.511C54.5362 16.895 54.3962 16.461 54.1162 16.209C53.8362 15.943 53.3602 15.81 52.6882 15.81C52.3102 15.81 51.8972 15.859 51.4492 15.957C51.0152 16.041 50.5322 16.188 50.0002 16.398C49.6922 16.538 49.4192 16.573 49.1812 16.503C48.9432 16.419 48.7612 16.279 48.6352 16.083C48.5092 15.873 48.4462 15.649 48.4462 15.411C48.4462 15.159 48.5162 14.921 48.6562 14.697C48.7962 14.459 49.0272 14.284 49.3492 14.172C50.0072 13.906 50.6232 13.724 51.1972 13.626C51.7852 13.528 52.3242 13.479 52.8142 13.479C53.8922 13.479 54.7742 13.64 55.4602 13.962C56.1602 14.27 56.6852 14.753 57.0352 15.411C57.3852 16.055 57.5602 16.888 57.5602 17.91V22.572C57.5602 23.09 57.4342 23.489 57.1822 23.769C56.9302 24.049 56.5662 24.189 56.0902 24.189C55.6142 24.189 55.2432 24.049 54.9772 23.769C54.7252 23.489 54.5992 23.09 54.5992 22.572V21.795L54.7462 21.921C54.6622 22.397 54.4802 22.81 54.2002 23.16C53.9342 23.496 53.5912 23.762 53.1712 23.958C52.7512 24.14 52.2682 24.231 51.7222 24.231Z" fill="#2B2B43"/>
<path d="M8.129 50.189C7.597 50.189 7.191 50.042 6.911 49.748C6.631 49.454 6.491 49.041 6.491 48.509V36.854C6.491 36.308 6.631 35.895 6.911 35.615C7.205 35.335 7.618 35.195 8.15 35.195H13.253C14.905 35.195 16.179 35.594 17.075 36.392C17.971 37.19 18.419 38.303 18.419 39.731C18.419 40.655 18.216 41.453 17.81 42.125C17.404 42.797 16.816 43.315 16.046 43.679C15.29 44.043 14.359 44.225 13.253 44.225L13.421 43.868H14.282C14.87 43.868 15.381 44.015 15.815 44.309C16.263 44.589 16.648 45.023 16.97 45.611L18.272 48.026C18.468 48.376 18.559 48.719 18.545 49.055C18.531 49.391 18.405 49.664 18.167 49.874C17.929 50.084 17.579 50.189 17.117 50.189C16.655 50.189 16.277 50.091 15.983 49.895C15.703 49.699 15.451 49.398 15.227 48.992L13.211 45.275C13.001 44.883 12.742 44.617 12.434 44.477C12.14 44.337 11.776 44.267 11.342 44.267H9.746V48.509C9.746 49.041 9.606 49.454 9.326 49.748C9.06 50.042 8.661 50.189 8.129 50.189ZM9.746 41.915H12.665C13.533 41.915 14.184 41.74 14.618 41.39C15.066 41.04 15.29 40.515 15.29 39.815C15.29 39.129 15.066 38.611 14.618 38.261C14.184 37.911 13.533 37.736 12.665 37.736H9.746V41.915ZM26.208 50.231C24.99 50.231 23.94 50.014 23.058 49.58C22.19 49.132 21.518 48.509 21.042 47.711C20.58 46.899 20.349 45.947 20.349 44.855C20.349 43.791 20.573 42.86 21.021 42.062C21.469 41.25 22.092 40.62 22.89 40.172C23.702 39.71 24.619 39.479 25.641 39.479C26.383 39.479 27.055 39.605 27.657 39.857C28.259 40.095 28.777 40.445 29.211 40.907C29.645 41.355 29.974 41.908 30.198 42.566C30.422 43.21 30.534 43.931 30.534 44.729C30.534 44.995 30.45 45.198 30.282 45.338C30.114 45.464 29.869 45.527 29.547 45.527H22.953V43.889H28.245L27.909 44.183C27.909 43.609 27.825 43.133 27.657 42.755C27.489 42.363 27.244 42.069 26.922 41.873C26.614 41.677 26.229 41.579 25.767 41.579C25.249 41.579 24.808 41.698 24.444 41.936C24.08 42.174 23.8 42.517 23.604 42.965C23.408 43.413 23.31 43.952 23.31 44.582V44.75C23.31 45.814 23.555 46.598 24.045 47.102C24.549 47.606 25.291 47.858 26.271 47.858C26.607 47.858 26.992 47.816 27.426 47.732C27.86 47.648 28.266 47.515 28.644 47.333C28.966 47.179 29.253 47.13 29.505 47.186C29.757 47.228 29.953 47.34 30.093 47.522C30.233 47.704 30.31 47.914 30.324 48.152C30.352 48.39 30.303 48.628 30.177 48.866C30.051 49.09 29.841 49.279 29.547 49.433C29.071 49.699 28.532 49.895 27.93 50.021C27.342 50.161 26.768 50.231 26.208 50.231ZM37.6778 50.231C36.7118 50.231 35.8998 50.07 35.2418 49.748C34.5978 49.426 34.1148 48.957 33.7928 48.341C33.4848 47.725 33.3308 46.948 33.3308 46.01V42.062H32.4488C32.0568 42.062 31.7488 41.957 31.5248 41.747C31.3148 41.537 31.2098 41.25 31.2098 40.886C31.2098 40.494 31.3148 40.2 31.5248 40.004C31.7488 39.794 32.0568 39.689 32.4488 39.689H33.3308V38.093C33.3308 37.561 33.4708 37.162 33.7508 36.896C34.0308 36.616 34.4228 36.476 34.9268 36.476C35.4448 36.476 35.8368 36.616 36.1028 36.896C36.3688 37.162 36.5018 37.561 36.5018 38.093V39.689H38.4968C38.8888 39.689 39.1898 39.794 39.3998 40.004C39.6098 40.2 39.7148 40.494 39.7148 40.886C39.7148 41.25 39.6098 41.537 39.3998 41.747C39.1898 41.957 38.8888 42.062 38.4968 42.062H36.5018V45.884C36.5018 46.472 36.6348 46.913 36.9008 47.207C37.1808 47.501 37.6218 47.648 38.2238 47.648C38.4338 47.648 38.6298 47.627 38.8118 47.585C38.9938 47.543 39.1618 47.515 39.3158 47.501C39.5118 47.487 39.6728 47.55 39.7988 47.69C39.9248 47.816 39.9878 48.103 39.9878 48.551C39.9878 48.887 39.9318 49.181 39.8198 49.433C39.7078 49.685 39.5118 49.867 39.2318 49.979C39.0498 50.049 38.7978 50.105 38.4758 50.147C38.1678 50.203 37.9018 50.231 37.6778 50.231ZM44.8931 50.231C44.1371 50.231 43.4581 50.084 42.8561 49.79C42.2541 49.496 41.7851 49.097 41.4491 48.593C41.1131 48.089 40.9451 47.522 40.9451 46.892C40.9451 46.136 41.1411 45.541 41.5331 45.107C41.9251 44.659 42.5621 44.344 43.4441 44.162C44.3261 43.966 45.4951 43.868 46.9511 43.868H48.0641V45.506H46.9721C46.2581 45.506 45.6771 45.548 45.2291 45.632C44.7951 45.702 44.4801 45.828 44.2841 46.01C44.1021 46.192 44.0111 46.444 44.0111 46.766C44.0111 47.158 44.1441 47.48 44.4101 47.732C44.6901 47.984 45.0891 48.11 45.6071 48.11C46.0131 48.11 46.3701 48.019 46.6781 47.837C47.0001 47.641 47.2521 47.382 47.4341 47.06C47.6161 46.724 47.7071 46.346 47.7071 45.926V43.511C47.7071 42.895 47.5671 42.461 47.2871 42.209C47.0071 41.943 46.5311 41.81 45.8591 41.81C45.4811 41.81 45.0681 41.859 44.6201 41.957C44.1861 42.041 43.7031 42.188 43.1711 42.398C42.8631 42.538 42.5901 42.573 42.3521 42.503C42.1141 42.419 41.9321 42.279 41.8061 42.083C41.6801 41.873 41.6171 41.649 41.6171 41.411C41.6171 41.159 41.6871 40.921 41.8271 40.697C41.9671 40.459 42.1981 40.284 42.5201 40.172C43.1781 39.906 43.7941 39.724 44.3681 39.626C44.9561 39.528 45.4951 39.479 45.9851 39.479C47.0631 39.479 47.9451 39.64 48.6311 39.962C49.3311 40.27 49.8561 40.753 50.2061 41.411C50.5561 42.055 50.7311 42.888 50.7311 43.91V48.572C50.7311 49.09 50.6051 49.489 50.3531 49.769C50.1011 50.049 49.7371 50.189 49.2611 50.189C48.7851 50.189 48.4141 50.049 48.1481 49.769C47.8961 49.489 47.7701 49.09 47.7701 48.572V47.795L47.9171 47.921C47.8331 48.397 47.6511 48.81 47.3711 49.16C47.1051 49.496 46.7621 49.762 46.3421 49.958C45.9221 50.14 45.4391 50.231 44.8931 50.231ZM54.9925 50.168C54.4745 50.168 54.0755 50.021 53.7955 49.727C53.5295 49.419 53.3965 48.992 53.3965 48.446V41.264C53.3965 40.704 53.5295 40.277 53.7955 39.983C54.0755 39.675 54.4745 39.521 54.9925 39.521C55.4965 39.521 55.8815 39.675 56.1475 39.983C56.4275 40.277 56.5675 40.704 56.5675 41.264V48.446C56.5675 48.992 56.4345 49.419 56.1685 49.727C55.9025 50.021 55.5105 50.168 54.9925 50.168ZM54.9925 37.799C54.4045 37.799 53.9495 37.666 53.6275 37.4C53.3195 37.12 53.1655 36.728 53.1655 36.224C53.1655 35.706 53.3195 35.314 53.6275 35.048C53.9495 34.768 54.4045 34.628 54.9925 34.628C55.5805 34.628 56.0285 34.768 56.3365 35.048C56.6445 35.314 56.7985 35.706 56.7985 36.224C56.7985 36.728 56.6445 37.12 56.3365 37.4C56.0285 37.666 55.5805 37.799 54.9925 37.799ZM63.0327 50.231C61.7867 50.231 60.8557 49.888 60.2397 49.202C59.6237 48.502 59.3157 47.466 59.3157 46.094V36.623C59.3157 36.091 59.4487 35.692 59.7147 35.426C59.9947 35.146 60.3937 35.006 60.9117 35.006C61.4157 35.006 61.8007 35.146 62.0667 35.426C62.3467 35.692 62.4867 36.091 62.4867 36.623V45.968C62.4867 46.542 62.6057 46.969 62.8437 47.249C63.0957 47.515 63.4247 47.648 63.8307 47.648C63.9427 47.648 64.0477 47.641 64.1457 47.627C64.2437 47.613 64.3487 47.606 64.4607 47.606C64.6847 47.578 64.8387 47.648 64.9227 47.816C65.0207 47.97 65.0697 48.285 65.0697 48.761C65.0697 49.181 64.9857 49.503 64.8177 49.727C64.6497 49.937 64.3907 50.077 64.0407 50.147C63.9007 50.161 63.7397 50.175 63.5577 50.189C63.3757 50.217 63.2007 50.231 63.0327 50.231Z" fill="#4E60FF"/>
<g clip-path="url(#clip0_4305_1170)">
<path d="M101.413 22.2693C101.53 22.3009 101.651 22.3159 101.769 22.3159C102.231 22.3159 102.662 22.0853 102.819 21.7184C103.166 20.9106 104.275 20.4768 105.293 20.7505C107.469 21.3348 109.842 20.4082 110.58 18.6809C110.777 18.2216 110.467 17.7209 109.887 17.5643C109.305 17.4085 108.677 17.6549 108.48 18.1151C108.134 18.9238 107.024 19.3576 106.005 19.083C103.833 18.5014 101.457 19.4262 100.719 21.1526C100.523 21.6119 100.833 22.1126 101.413 22.2693Z" fill="black"/>
<path d="M104.036 16.1379C104.154 16.1696 104.274 16.1846 104.392 16.1846C104.854 16.1846 105.285 15.954 105.442 15.5871C105.609 15.1955 105.958 14.8787 106.426 14.6957C106.894 14.5127 107.423 14.4863 107.916 14.6192C110.092 15.2034 112.464 14.2769 113.203 12.5487C113.4 12.0894 113.089 11.5887 112.51 11.4321C111.93 11.2737 111.3 11.5227 111.104 11.9829C110.758 12.7924 109.65 13.2262 108.629 12.9517C107.574 12.6675 106.444 12.7256 105.446 13.1171C104.448 13.5078 103.701 14.1845 103.343 15.0213C103.145 15.4815 103.456 15.9813 104.036 16.1379Z" fill="black"/>
<path d="M106.657 10.0066C106.776 10.0383 106.895 10.0533 107.014 10.0533C107.476 10.0533 107.908 9.82272 108.064 9.45579C108.319 8.8592 109.14 8.53803 109.891 8.74041C110.817 8.98943 111.809 8.9384 112.686 8.59611C113.562 8.25293 114.217 7.65986 114.532 6.92513C114.729 6.46581 114.419 5.96513 113.839 5.8085C113.257 5.651 112.63 5.89913 112.432 6.35934C112.308 6.64883 112.05 6.88289 111.705 7.01752C111.36 7.15215 110.97 7.17239 110.604 7.07295C108.695 6.56172 106.611 7.37477 105.964 8.88912C105.768 9.3502 106.077 9.85 106.657 10.0066Z" fill="black"/>
<path d="M114.688 22.2041C114.495 22.0994 114.278 22.0396 114.056 22.0167C116.259 16.335 117.468 10.7686 117.641 5.46707C117.695 3.79961 116.669 1.5734 114.599 0.543008C113.605 0.0476099 111.978 -0.360675 109.864 0.502531C106.553 1.8585 104.184 5.8472 102.282 9.05365C102.172 9.23843 102.065 9.41881 101.958 9.59744C101.538 8.06373 100.261 6.75176 98.4447 6.06718C98.0167 4.43404 96.3847 3.15463 94.3336 2.82289C94.3115 2.73138 94.2837 2.64163 94.2494 2.551C93.8269 1.40533 92.553 0.543008 91.0796 0.40398C90.2492 0.325666 89.4265 0.462055 88.7236 0.788507C88.1249 0.52365 87.453 0.382862 86.7634 0.382862C84.8353 0.382862 83.2155 1.45021 82.7931 2.87833C80.6855 3.33413 79.1399 4.8696 79.1233 6.65409C76.7185 7.14685 74.9668 8.8715 74.9668 10.9226C74.9668 11.4664 75.0954 12.0049 75.3426 12.5126C74.7184 13.1242 74.3725 13.8897 74.3725 14.6931C74.3725 15.1753 74.4978 15.6399 74.7339 16.0693C73.6263 15.1102 72.0675 14.3262 70.3168 14.3772C69.7048 14.393 73.1463 16.4556 73.1651 16.9413C73.184 17.4173 69.7536 16.137 70.3501 16.137C73.1651 16.9413 70.4222 16.1353 70.4576 16.1353C71.4965 16.1353 72.4622 16.6808 73.1651 17.3144C71.4067 17.7165 69.2869 18.3712 68.2979 19.8512C67.7025 20.7443 67.6327 21.8398 68.0296 23.0946C67.8378 23.3489 67.7324 23.6446 67.7524 23.9596L69.6394 45.2423C69.8113 47.9112 72.583 50.001 75.9491 50.001H107.072C110.438 50.001 113.209 47.9111 113.38 45.2582L115.315 23.2354C115.315 23.2301 115.316 23.2248 115.316 23.2196C115.347 22.8139 115.111 22.4347 114.688 22.2041ZM102.863 12.114C103.302 11.4638 103.781 10.6577 104.288 9.80334C105.954 6.99462 108.238 3.14847 110.88 2.06616C111.845 1.67195 112.675 1.66403 113.42 2.03272C114.705 2.67331 115.461 4.28973 115.425 5.42131C115.255 10.6234 114.058 16.0983 111.864 21.6947C111.792 21.8786 111.633 22.2499 111.405 22.7594L109.516 23.4255C109.475 23.4404 109.435 23.4563 109.397 23.4756C108.851 23.7352 108.239 23.8637 107.627 23.8689C107.015 23.8637 106.404 23.7352 105.859 23.4756L105.068 23.099C104.159 22.6661 103.14 22.4496 102.121 22.4496C102.109 22.4496 102.097 22.4514 102.083 22.4514C101.052 22.4461 100.019 22.6599 99.0988 23.099L98.3094 23.4756C97.8693 23.685 97.3826 23.7871 96.8903 23.8311C96.918 23.7546 96.9502 23.6798 96.979 23.6041C97.2828 22.7849 97.6087 21.9771 97.9502 21.1755C98.0799 20.871 98.2152 20.5683 98.3505 20.2665C98.6354 19.6303 98.9336 19.0021 99.2419 18.3782C99.3793 18.0993 99.5135 17.8177 99.6554 17.5414C100.622 15.6698 101.689 13.8545 102.863 12.114ZM88.7291 14.2012C88.8588 14.0692 88.9852 13.9408 89.105 13.8158L89.1072 13.8123C89.1948 13.7199 89.2713 13.624 89.3356 13.5281C89.6083 13.1207 89.6726 12.6631 89.5462 12.2161L94.174 11.4127C94.205 11.5254 94.2383 11.6371 94.2915 11.7409C94.4988 12.1439 94.8691 12.4792 95.3847 12.7133C95.5532 12.7872 95.7295 12.8611 95.9113 12.9376C96.061 13.0001 96.2107 13.0652 96.3614 13.1303C96.4335 13.1611 96.5067 13.1919 96.5788 13.2236C96.7107 13.2826 96.8382 13.3477 96.9668 13.4119C97.0766 13.4656 97.1852 13.521 97.2917 13.58C97.4147 13.6477 97.5322 13.7225 97.6498 13.7982C97.7529 13.8651 97.8515 13.9381 97.9491 14.0129C98.0544 14.0947 98.1587 14.1783 98.2551 14.2698C98.4259 14.4317 98.5899 14.5998 98.7241 14.8013C98.254 15.6249 97.8116 16.4653 97.3837 17.3126C97.3172 17.4437 97.2462 17.5713 97.1808 17.7024C95.9656 17.9471 94.7915 18.4046 93.3413 19.2238C91.5142 20.2542 90.1538 20.5279 87.912 20.2701L87.239 17.8247C86.7822 16.1714 87.7723 15.17 88.7291 14.2012ZM94.2272 8.85742C94.256 8.85302 94.2848 8.85038 94.3137 8.85038C94.5232 8.85038 94.7195 8.96917 94.7649 9.13636C94.8004 9.26307 94.7405 9.3625 94.7006 9.4109C94.6618 9.45841 94.5742 9.542 94.4157 9.56928L88.2912 10.6331C88.0473 10.6753 87.7989 10.5469 87.7457 10.3551C87.6925 10.1624 87.8532 9.96437 88.096 9.92213L91.3501 9.35722L94.2272 8.85742ZM90.6439 22.4672C90.5596 22.4716 90.4742 22.4734 90.39 22.4804C89.7857 22.5288 89.1892 22.6503 88.6227 22.8526L88.4109 22.0827C88.7302 22.1038 89.0484 22.1249 89.3467 22.1249C91.2803 22.1249 92.8369 21.6683 94.6263 20.6581C95.1895 20.3396 95.6885 20.0985 96.163 19.8987C96.061 20.1284 95.9601 20.3572 95.8614 20.5877C95.7905 20.7531 95.714 20.9159 95.6452 21.0822C95.3193 21.8654 95.0088 22.6547 94.7195 23.451L93.9822 23.1008C93.073 22.6679 92.0541 22.4514 91.0352 22.4514C91.0219 22.4514 91.0075 22.4531 90.9942 22.4531C90.8767 22.4514 90.7603 22.462 90.6439 22.4672ZM77.3826 13.3679L78.1088 12.8928L77.6376 12.2478C77.3427 11.843 77.1864 11.3854 77.1864 10.9226C77.1864 9.49713 78.5933 8.33475 80.3894 8.27491L81.7354 8.23004L81.4216 7.18996C81.3684 7.01574 81.3418 6.84415 81.3418 6.68137C81.3418 5.54802 82.4572 4.5933 83.8807 4.50707L84.9052 4.44548V3.56995C84.9373 2.7789 85.7589 2.14271 86.7645 2.14271C87.3432 2.14271 87.7579 2.35213 88.0029 2.52812L88.7801 3.08511L89.5252 2.50084C89.8666 2.23334 90.3356 2.1084 90.819 2.15239C91.4133 2.20783 91.9499 2.57564 92.1229 3.04816C92.1816 3.20654 92.1983 3.35965 92.175 3.5154L92.0453 4.49827H93.2937C94.8869 4.49827 96.2195 5.48643 96.3293 6.74824L96.3792 7.32635L97.0677 7.51818C98.8006 8.00125 99.9404 9.30267 99.9015 10.7589C99.8849 11.381 99.6321 11.9803 99.1742 12.5056C98.4325 12.0058 97.6331 11.6688 96.9613 11.3881C96.7872 11.3151 96.6187 11.2447 96.449 11.1699C96.4014 11.1487 96.3437 11.1118 96.3238 11.0194C96.2971 10.8927 96.357 10.7405 96.4779 10.6287C96.9613 10.1835 97.1553 9.57632 96.999 9.00349L96.8648 8.51865C96.7306 8.02941 96.3626 7.61145 95.8304 7.34043C95.2993 7.07029 94.6673 6.97966 94.052 7.08701L93.7549 7.13893C93.7516 7.13981 93.7482 7.13893 93.7449 7.13981L90.4909 7.70472L87.3155 8.25467C86.7002 8.36114 86.1736 8.6524 85.8321 9.07564C85.4906 9.49713 85.3775 9.99957 85.5117 10.4879L85.5782 10.7273V10.7299L85.5793 10.7334L85.6447 10.9719C85.8055 11.5579 86.3188 12.0516 87.0162 12.2891C87.1891 12.3481 87.3333 12.4598 87.3831 12.5733C87.412 12.6385 87.3953 12.6719 87.331 12.7564C87.2213 12.8734 87.1026 12.9931 86.9818 13.1154C86.8598 13.2386 86.7334 13.3679 86.6048 13.5017C86.5616 13.5465 86.5206 13.5932 86.4773 13.6389C86.3853 13.7384 86.2933 13.8396 86.2024 13.9452C86.1525 14.0023 86.1048 14.0613 86.056 14.1211C85.9718 14.2241 85.8908 14.3306 85.811 14.4397C85.7644 14.503 85.719 14.5655 85.6746 14.6315C85.5915 14.7547 85.5161 14.884 85.4418 15.016C85.4097 15.0723 85.3753 15.126 85.3465 15.185C85.2489 15.3768 85.1624 15.5774 85.0937 15.7886C85.0826 15.822 85.0782 15.8581 85.0682 15.8924C85.015 16.0719 84.9717 16.2576 84.944 16.4512C84.9329 16.5286 84.9307 16.6096 84.924 16.6896C84.9152 16.7935 84.8985 16.892 84.8985 17.0003C84.8941 16.9959 84.8897 16.9915 84.8852 16.9871C84.8697 16.9712 84.8542 16.9571 84.8398 16.9413C84.6469 16.7398 84.4539 16.5541 84.2599 16.3781C84.1989 16.3227 84.1369 16.269 84.0748 16.2162C83.9118 16.0763 83.7488 15.9452 83.5847 15.822C83.5315 15.7824 83.4783 15.7393 83.424 15.7006C83.2166 15.5537 83.0082 15.419 82.7987 15.2994C82.7399 15.2659 82.68 15.2378 82.6213 15.2061C82.4638 15.1225 82.3064 15.0451 82.1467 14.9764C82.0691 14.943 81.9926 14.9104 81.9139 14.8805C81.7487 14.8163 81.5824 14.7617 81.415 14.7142C81.3596 14.6984 81.3041 14.6772 81.2487 14.6632C81.0669 14.6174 80.8839 14.5805 80.6999 14.5532C80.6788 14.5497 80.6577 14.5514 80.6367 14.5488C80.599 14.5435 80.5624 14.5321 80.5247 14.5277C80.3961 14.5127 80.2741 14.5189 80.1477 14.5118C80.059 14.5074 79.9715 14.4925 79.8828 14.4925C79.8561 14.4925 79.8284 14.4977 79.8007 14.4977C79.6289 14.4995 79.4626 14.5153 79.2951 14.5321C79.212 14.5409 79.1288 14.5461 79.0457 14.5585C78.8273 14.5901 78.6155 14.6341 78.406 14.6869C78.3738 14.6948 78.3428 14.701 78.3106 14.7098C77.7585 14.8585 77.2352 15.0688 76.7451 15.3231C76.6442 15.1251 76.591 14.9122 76.591 14.6931C76.5921 14.1783 76.8804 13.6953 77.3826 13.3679ZM70.2592 20.6739C70.7282 19.9726 71.8668 19.4376 73.8436 18.9889C74.7683 18.7795 75.6264 18.3879 76.3227 17.8599C76.6387 17.6197 76.9347 17.4165 77.2208 17.2317C78.1144 16.6553 78.8849 16.3421 79.5823 16.2708C79.5978 16.269 79.6133 16.2673 79.6289 16.2664C79.8495 16.247 80.0635 16.2523 80.2708 16.2814C80.3251 16.2893 80.3806 16.3042 80.436 16.3157C80.5391 16.3359 80.6411 16.3561 80.7442 16.3887C80.8107 16.4089 80.8773 16.4397 80.9449 16.4644C81.0414 16.5013 81.1367 16.5348 81.2332 16.5814C81.3085 16.6175 81.3839 16.6641 81.4593 16.7055C81.5491 16.7556 81.6389 16.8014 81.7299 16.8595C81.8141 16.9131 81.8984 16.9783 81.9826 17.039C82.0669 17.0997 82.1512 17.1551 82.2354 17.2229C82.3286 17.2977 82.4228 17.3848 82.517 17.4684C82.5935 17.5361 82.67 17.5986 82.7477 17.6716C82.853 17.7719 82.9594 17.8863 83.0658 17.9972C83.1335 18.0676 83.2 18.131 83.2676 18.2058C83.3885 18.3395 83.5104 18.4882 83.6324 18.636C83.6856 18.7011 83.7399 18.7592 83.7932 18.8261C83.9694 19.047 84.1468 19.2819 84.3253 19.5318C85.1413 20.6748 85.4119 22.3634 85.0571 23.8338C84.9983 23.8294 84.9407 23.8223 84.8819 23.8153C84.4595 23.7581 84.0526 23.6507 83.6823 23.4747L82.8918 23.0981C81.9826 22.6652 80.9637 22.4487 79.9448 22.4487C79.9326 22.4487 79.9205 22.4505 79.9071 22.4505C78.876 22.4452 77.8427 22.6591 76.9225 23.0981L76.5378 23.2812C75.867 23.6006 75.1153 23.7616 74.3636 23.7669C73.6108 23.7616 72.8602 23.6015 72.1894 23.2812L70.6982 22.5702L70.6971 22.5693C70.5009 22.4769 70.2891 22.4136 70.0718 22.3819C69.8977 21.6859 69.9598 21.1227 70.2592 20.6739ZM111.172 45.1517C111.06 46.8834 109.26 48.2402 107.076 48.2402H75.9524C73.7671 48.2402 71.9688 46.8834 71.8557 45.135L70.0108 24.3318L70.9754 24.7911C72.0209 25.2891 73.195 25.5338 74.3658 25.5285C75.5377 25.5338 76.7107 25.2891 77.7563 24.7911L78.141 24.6081C78.6865 24.3476 79.2974 24.2192 79.9094 24.2139C80.5214 24.2192 81.1323 24.3476 81.6789 24.6081L82.4694 24.9847C83.4694 25.4607 84.6025 25.6649 85.7223 25.6165C85.8221 25.613 85.9219 25.613 86.0228 25.6059C86.035 25.605 86.0461 25.5998 86.0594 25.5989C86.8166 25.5311 87.5594 25.3419 88.2446 25.0322C88.3089 25.0137 88.3777 25.0129 88.4375 24.9847L89.228 24.6081C89.7735 24.3476 90.3844 24.2192 90.9964 24.2139C91.6084 24.2192 92.2193 24.3476 92.7659 24.6081L93.5564 24.9847C94.3957 25.3833 95.3292 25.5901 96.2683 25.6209C96.2872 25.6218 96.3071 25.6235 96.326 25.6235C96.6497 25.6314 96.9735 25.6235 97.295 25.5874C97.479 25.569 97.6575 25.532 97.8382 25.4995C97.9258 25.4827 98.0134 25.4678 98.0999 25.4475C98.5922 25.3393 99.0745 25.1976 99.5235 24.9838L100.314 24.6072C100.859 24.3467 101.47 24.2183 102.082 24.213C102.694 24.2183 103.305 24.3467 103.852 24.6072L104.642 24.9838C105.558 25.4194 106.586 25.6332 107.613 25.6297C107.629 25.6297 107.647 25.6323 107.664 25.6323C108.659 25.6323 109.656 25.4264 110.55 25.0129L112.725 24.2456C112.771 24.2288 112.805 24.1972 112.848 24.176L113.018 24.1162L111.172 45.1517Z" fill="black"/>
<path d="M74.4036 37.8404H82.1646C82.7766 37.8404 83.2733 37.4471 83.2733 36.9605C83.2733 36.4739 82.7766 36.0806 82.1646 36.0806H74.4036C73.7916 36.0806 73.2949 36.4739 73.2949 36.9605C73.2949 37.4471 73.7916 37.8404 74.4036 37.8404Z" fill="#4E60FF"/>
<path d="M74.4036 41.3601H84.382C84.994 41.3601 85.4907 40.9668 85.4907 40.4802C85.4907 39.9936 84.994 39.6003 84.382 39.6003H74.4036C73.7916 39.6003 73.2949 39.9936 73.2949 40.4802C73.2949 40.9668 73.7916 41.3601 74.4036 41.3601Z" fill="#4E60FF"/>
<path d="M86.5994 43.1199H74.4036C73.7916 43.1199 73.2949 43.5133 73.2949 43.9999C73.2949 44.4865 73.7916 44.8798 74.4036 44.8798H86.5994C87.2114 44.8798 87.7081 44.4865 87.7081 43.9999C87.7081 43.5133 87.2114 43.1199 86.5994 43.1199Z" fill="#4E60FF"/>
<path d="M93.2514 43.1199H91.034C90.422 43.1199 89.9253 43.5133 89.9253 43.9999C89.9253 44.4865 90.422 44.8798 91.034 44.8798H93.2514C93.8634 44.8798 94.3601 44.4865 94.3601 43.9999C94.3601 43.5133 93.8634 43.1199 93.2514 43.1199Z" fill="#4E60FF"/>
</g>
<path d="M63.8868 30.0028L61 27.1161L58.1132 30.0028L61 32.8896L63.8868 30.0028ZM5 30.5028H33V29.5028H5V30.5028ZM33 30.5028H61V29.5028H33V30.5028Z" fill="black"/>
<defs>
<clipPath id="clip0_4305_1170">
<rect width="63" height="50" fill="white" transform="translate(61)"/>
</clipPath>
</defs>
</svg>
