<svg width="28" height="34" viewBox="0 0 28 34" fill="none" xmlns="http://www.w3.org/2000/svg">
<path d="M18.8099 15.1431C18.8733 15.1646 18.9385 15.1748 19.002 15.1748C19.2515 15.1748 19.4842 15.018 19.5686 14.7685C19.7559 14.2192 20.3548 13.9242 20.9041 14.1103C22.0781 14.5076 23.3591 13.8776 23.757 12.703C23.8636 12.3907 23.696 12.0502 23.3831 11.9437C23.0689 11.8378 22.7303 12.0053 22.6238 12.3183C22.4371 12.8681 21.8381 13.1631 21.2883 12.9764C20.1161 12.5809 18.8338 13.2098 18.4353 14.3838C18.3294 14.6961 18.497 15.0366 18.8099 15.1431Z" fill="#4E60FF"/>
<path d="M20.2256 10.9738C20.289 10.9953 20.3542 11.0055 20.4177 11.0055C20.6672 11.0055 20.8999 10.8487 20.9843 10.5992C21.0747 10.3329 21.2631 10.1175 21.5156 9.99307C21.7681 9.86861 22.0536 9.85066 22.3198 9.94101C23.4938 10.3383 24.7742 9.70826 25.1727 8.5331C25.2793 8.22076 25.1111 7.8803 24.7988 7.77379C24.4858 7.66609 24.146 7.83542 24.0401 8.14836C23.8534 8.69884 23.2556 8.99383 22.7046 8.80714C22.1349 8.61388 21.5252 8.65337 20.9867 8.91963C20.4482 9.1853 20.0449 9.64543 19.8516 10.2145C19.7445 10.5274 19.9127 10.8673 20.2256 10.9738Z" fill="#4E60FF"/>
<path d="M21.6402 6.80449C21.7042 6.82603 21.7688 6.83621 21.8328 6.83621C22.0824 6.83621 22.3151 6.67944 22.3995 6.42993C22.5371 6.02425 22.9805 5.80585 23.3856 5.94347C23.8852 6.1128 24.4207 6.0781 24.894 5.84534C25.3667 5.61198 25.7203 5.2087 25.8902 4.70907C25.9968 4.39674 25.8292 4.05628 25.5163 3.94977C25.2021 3.84266 24.8635 4.0114 24.757 4.32434C24.69 4.52119 24.5505 4.68035 24.3645 4.7719C24.1784 4.86345 23.9678 4.87721 23.7703 4.8096C22.7399 4.46196 21.6156 5.01483 21.2662 6.04459C21.1603 6.35813 21.3272 6.69799 21.6402 6.80449Z" fill="#4E60FF"/>
<path d="M25.9746 15.0988C25.8705 15.0276 25.7532 14.9869 25.6336 14.9714C26.8225 11.1078 27.4747 7.32266 27.568 3.71761C27.5974 2.58374 27.0433 1.06991 25.9262 0.369245C25.3901 0.0323748 24.5117 -0.245259 23.3712 0.341721C21.584 1.26378 20.3059 3.97609 19.2791 6.15648C19.2199 6.28213 19.1618 6.40479 19.1044 6.52626C18.8776 5.48334 18.1883 4.5912 17.2082 4.12568C16.9773 3.01515 16.0965 2.14515 14.9895 1.91957C14.9776 1.85734 14.9626 1.79631 14.9441 1.73468C14.7161 0.955628 14.0286 0.369245 13.2334 0.274706C12.7852 0.221453 12.3412 0.314197 11.9619 0.536185C11.6388 0.356082 11.2762 0.260346 10.904 0.260346C9.86349 0.260346 8.9893 0.986143 8.76133 1.95726C7.62387 2.26721 6.78977 3.31133 6.78079 4.52478C5.48297 4.85986 4.53758 6.03262 4.53758 7.42737C4.53758 7.79715 4.60699 8.16334 4.74042 8.50859C4.40355 8.92444 4.21686 9.44501 4.21686 9.9913C4.21686 10.3192 4.28448 10.6351 4.41193 10.9271C3.81417 10.2749 2.9729 9.74179 2.0281 9.77649C1.69781 9.78726 3.55509 11.1898 3.56526 11.5201C3.57543 11.8438 1.72414 10.9732 2.04605 10.9732C3.56526 11.5201 2.08494 10.972 2.10409 10.972C2.66475 10.972 3.18591 11.343 3.56526 11.7738C2.61628 12.0472 1.47223 12.4924 0.938507 13.4988C0.617194 14.1061 0.579498 14.8511 0.793707 15.7043C0.690193 15.8773 0.633349 16.0783 0.64412 16.2925L1.66251 30.7648C1.75525 32.5796 3.25113 34.0007 5.06772 34.0007H21.864C23.6806 34.0007 25.1764 32.5796 25.2686 30.7756L26.3127 15.8001C26.3127 15.7965 26.3133 15.7929 26.3133 15.7893C26.3301 15.5135 26.2026 15.2556 25.9746 15.0988ZM19.5926 8.23754C19.8296 7.79536 20.0881 7.24727 20.3615 6.66627C21.2608 4.75634 22.4934 2.14096 23.9193 1.40499C24.4399 1.13693 24.888 1.13154 25.2901 1.38225C25.9836 1.81785 26.3917 2.91702 26.3719 3.68649C26.2804 7.22393 25.6342 10.9469 24.4506 14.7524C24.4118 14.8774 24.3256 15.1299 24.2029 15.4764L23.1833 15.9293C23.1612 15.9395 23.1397 15.9503 23.1187 15.9634C22.8243 16.1399 22.494 16.2273 22.1638 16.2309C21.8335 16.2273 21.5038 16.1399 21.2094 15.9634L20.7828 15.7073C20.2921 15.4129 19.7422 15.2657 19.1924 15.2657C19.1858 15.2657 19.1792 15.2669 19.172 15.2669C18.6155 15.2634 18.0579 15.4088 17.5613 15.7073L17.1352 15.9634C16.8977 16.1058 16.635 16.1752 16.3693 16.2052C16.3843 16.1531 16.4016 16.1022 16.4172 16.0508C16.5812 15.4937 16.7571 14.9444 16.9414 14.3993C17.0114 14.1923 17.0844 13.9865 17.1574 13.7812C17.3111 13.3486 17.4721 12.9214 17.6384 12.4972C17.7126 12.3075 17.785 12.116 17.8616 11.9282C18.3834 10.6555 18.959 9.42107 19.5926 8.23754ZM11.9649 9.65682C12.0349 9.56707 12.1031 9.47971 12.1677 9.39475L12.1689 9.39235C12.2162 9.32953 12.2575 9.26431 12.2922 9.19909C12.4394 8.92205 12.4741 8.61091 12.4059 8.30695L14.9034 7.76065C14.9201 7.83724 14.9381 7.91323 14.9668 7.98384C15.0787 8.25788 15.2785 8.48585 15.5568 8.64501C15.6477 8.69528 15.7429 8.74554 15.841 8.79759C15.9218 8.84008 16.0025 8.88435 16.0839 8.92863C16.1228 8.94957 16.1623 8.97052 16.2012 8.99206C16.2724 9.03215 16.3412 9.07642 16.4106 9.1201C16.4699 9.1566 16.5285 9.1943 16.5859 9.23439C16.6524 9.28046 16.7158 9.33132 16.7792 9.38278C16.8349 9.42825 16.8881 9.47792 16.9408 9.52878C16.9976 9.58442 17.0538 9.64127 17.1059 9.70349C17.1981 9.81359 17.2866 9.92787 17.359 10.0649C17.1053 10.625 16.8666 11.1964 16.6356 11.7726C16.5997 11.8617 16.5614 11.9485 16.5261 12.0377C15.8703 12.204 15.2367 12.5151 14.454 13.0722C13.4679 13.7729 12.7338 13.959 11.5239 13.7836L11.1607 12.1208C10.9142 10.9965 11.4485 10.3156 11.9649 9.65682ZM14.9321 6.02305C14.9477 6.02006 14.9632 6.01826 14.9788 6.01826C15.0919 6.01826 15.1978 6.09904 15.2223 6.21272C15.2414 6.29889 15.2091 6.3665 15.1876 6.39941C15.1667 6.43172 15.1194 6.48856 15.0338 6.50711L11.7285 7.23052C11.5969 7.25924 11.4629 7.17188 11.4342 7.04144C11.4054 6.9104 11.4922 6.77577 11.6232 6.74705L13.3794 6.36291L14.9321 6.02305ZM12.9982 15.2777C12.9528 15.2807 12.9067 15.2819 12.8612 15.2867C12.5351 15.3196 12.2132 15.4022 11.9074 15.5398L11.7932 15.0162C11.9655 15.0306 12.1372 15.045 12.2982 15.045C13.3417 15.045 14.1818 14.7344 15.1475 14.0475C15.4515 13.8309 15.7207 13.667 15.9768 13.5311C15.9218 13.6873 15.8673 13.8429 15.8141 13.9996C15.7758 14.1121 15.7345 14.2228 15.6974 14.3359C15.5215 14.8684 15.3539 15.4052 15.1978 15.9467L14.7999 15.7085C14.3092 15.4141 13.7593 15.2669 13.2095 15.2669C13.2023 15.2669 13.1945 15.2681 13.1873 15.2681C13.1239 15.2669 13.0611 15.2741 12.9982 15.2777ZM5.84138 9.09019L6.2333 8.76708L5.979 8.32849C5.81984 8.05325 5.73547 7.74211 5.73547 7.42737C5.73547 6.45805 6.49478 5.66763 7.4641 5.62694L8.1905 5.59642L8.02117 4.88918C7.99245 4.7707 7.97809 4.65402 7.97809 4.54333C7.97809 3.77266 8.58003 3.12345 9.34831 3.06481L9.90118 3.02292V2.42757C9.91853 1.88965 10.3619 1.45704 10.9046 1.45704C11.217 1.45704 11.4407 1.59945 11.573 1.71912L11.9924 2.09788L12.3945 1.70057C12.5788 1.51867 12.8319 1.43371 13.0928 1.46363C13.4135 1.50132 13.7031 1.75143 13.7964 2.07275C13.8281 2.18045 13.8371 2.28456 13.8246 2.39047L13.7546 3.05883H14.4283C15.2881 3.05883 16.0073 3.73077 16.0666 4.5888L16.0935 4.98192L16.4651 5.11236C17.4003 5.44085 18.0154 6.32581 17.9945 7.31608C17.9855 7.73911 17.8491 8.14659 17.6019 8.5038C17.2016 8.16394 16.7702 7.93477 16.4076 7.7439C16.3137 7.69424 16.2227 7.64637 16.1312 7.59551C16.1055 7.58115 16.0744 7.55602 16.0636 7.49319C16.0492 7.40703 16.0815 7.30352 16.1468 7.22752C16.4076 6.92476 16.5123 6.5119 16.428 6.12237L16.3556 5.79268C16.2832 5.46 16.0845 5.17579 15.7973 4.99149C15.5107 4.8078 15.1696 4.74617 14.8376 4.81917L14.6772 4.85447C14.6754 4.85507 14.6736 4.85447 14.6718 4.85507L12.9157 5.23921L11.202 5.61318C10.8699 5.68558 10.5857 5.88363 10.4014 6.17144C10.2171 6.45805 10.1561 6.7997 10.2285 7.13179L10.2644 7.29454V7.29634L10.265 7.29873L10.3003 7.46088C10.387 7.85938 10.6641 8.19506 11.0404 8.35661C11.1338 8.3967 11.2116 8.47269 11.2385 8.54988C11.254 8.59415 11.2451 8.61689 11.2104 8.67433C11.1511 8.75391 11.0871 8.83529 11.0219 8.91846C10.9561 9.00223 10.8879 9.09019 10.8185 9.18113C10.7951 9.21165 10.773 9.24336 10.7496 9.27448C10.7 9.34209 10.6503 9.4109 10.6013 9.4827C10.5743 9.5216 10.5486 9.56169 10.5223 9.60237C10.4768 9.67238 10.4331 9.74478 10.39 9.81898C10.3649 9.86206 10.3404 9.90454 10.3164 9.94942C10.2716 10.0332 10.2309 10.1211 10.1908 10.2109C10.1734 10.2492 10.1549 10.2857 10.1393 10.3258C10.0867 10.4562 10.04 10.5926 10.0029 10.7362C9.99692 10.759 9.99453 10.7835 9.98914 10.8069C9.96042 10.9289 9.93708 11.0552 9.92212 11.1868C9.91614 11.2395 9.91494 11.2945 9.91135 11.349C9.90657 11.4196 9.89759 11.4866 9.89759 11.5602C9.8952 11.5572 9.8928 11.5542 9.89041 11.5512C9.88203 11.5404 9.87366 11.5309 9.86588 11.5201C9.76177 11.3831 9.65765 11.2568 9.55294 11.1371C9.52003 11.0994 9.48653 11.0629 9.45302 11.027C9.36506 10.9319 9.2771 10.8428 9.18855 10.759C9.15983 10.7321 9.13111 10.7027 9.10179 10.6764C8.9899 10.5765 8.87741 10.4849 8.76432 10.4036C8.73261 10.3808 8.7003 10.3617 8.66858 10.3401C8.58362 10.2833 8.49865 10.2306 8.41249 10.184C8.3706 10.1612 8.32932 10.1391 8.28684 10.1187C8.19768 10.0751 8.10793 10.038 8.01758 10.0057C7.98766 9.99489 7.95774 9.98053 7.92783 9.97096C7.8297 9.93984 7.73097 9.91471 7.63164 9.89616C7.62027 9.89377 7.60891 9.89497 7.59754 9.89317C7.57719 9.88958 7.55745 9.8818 7.5371 9.87881C7.46769 9.86864 7.40188 9.87283 7.33366 9.86804C7.2858 9.86505 7.23853 9.85488 7.19066 9.85488C7.1763 9.85488 7.16134 9.85847 7.14638 9.85847C7.05364 9.85966 6.96389 9.87043 6.87353 9.8818C6.82866 9.88779 6.78378 9.89138 6.73891 9.89975C6.62103 9.92129 6.50675 9.95121 6.39366 9.98711C6.37631 9.9925 6.35955 9.99668 6.3422 10.0027C6.04422 10.1038 5.7618 10.2468 5.49733 10.4197C5.44288 10.2851 5.41416 10.1403 5.41416 9.9913C5.41476 9.64127 5.57033 9.31277 5.84138 9.09019ZM1.99699 14.0583C2.25009 13.5814 2.86459 13.2176 3.93145 12.9124C4.43047 12.77 4.8936 12.5038 5.26936 12.1448C5.43989 11.9814 5.59965 11.8432 5.75402 11.7175C6.23629 11.3256 6.65215 11.1126 7.02851 11.0641C7.03688 11.0629 7.04526 11.0617 7.05364 11.0611C7.17271 11.048 7.28819 11.0516 7.40008 11.0713C7.4294 11.0767 7.45932 11.0869 7.48924 11.0947C7.54488 11.1084 7.59993 11.1222 7.65558 11.1443C7.69148 11.1581 7.72738 11.179 7.76388 11.1958C7.81593 11.2209 7.86739 11.2436 7.91945 11.2754C7.96014 11.2999 8.00082 11.3316 8.04151 11.3597C8.08998 11.3938 8.13844 11.4249 8.18751 11.4644C8.23298 11.5009 8.27846 11.5452 8.32393 11.5865C8.36941 11.6278 8.41488 11.6655 8.46036 11.7116C8.51062 11.7624 8.56148 11.8216 8.61234 11.8785C8.65362 11.9246 8.69491 11.967 8.73679 12.0167C8.79364 12.0849 8.85108 12.1627 8.90852 12.2381C8.94502 12.286 8.98092 12.3291 9.01742 12.3799C9.08264 12.4709 9.14846 12.572 9.21428 12.6725C9.243 12.7168 9.27232 12.7563 9.30104 12.8017C9.39617 12.9519 9.49191 13.1117 9.58825 13.2816C10.0286 14.0589 10.1746 15.2071 9.98316 16.207C9.95144 16.204 9.92033 16.1992 9.88862 16.1944C9.66065 16.1555 9.44105 16.0825 9.2412 15.9628L8.81458 15.7067C8.32393 15.4123 7.77405 15.2651 7.22417 15.2651C7.21759 15.2651 7.211 15.2663 7.20382 15.2663C6.64736 15.2628 6.0897 15.4082 5.59307 15.7067L5.38544 15.8312C5.02344 16.0484 4.61776 16.1579 4.21208 16.1615C3.8058 16.1579 3.40071 16.049 3.03871 15.8312L2.23393 15.3477L2.23334 15.3471C2.12743 15.2843 2.01314 15.2412 1.89587 15.2197C1.80193 14.7464 1.83543 14.3634 1.99699 14.0583ZM24.0767 30.7032C24.0162 31.8807 23.0451 32.8034 21.8664 32.8034H5.06951C3.89016 32.8034 2.91964 31.8807 2.85861 30.6918L1.86296 16.5456L2.38352 16.858C2.94776 17.1966 3.58142 17.363 4.21327 17.3594C4.84573 17.363 5.47878 17.1966 6.04303 16.858L6.25065 16.7335C6.54504 16.5564 6.87473 16.469 7.20502 16.4654C7.53531 16.469 7.865 16.5564 8.15999 16.7335L8.58661 16.9896C9.12632 17.3133 9.73783 17.4521 10.3422 17.4192C10.396 17.4168 10.4499 17.4168 10.5043 17.412C10.5109 17.4114 10.5169 17.4078 10.5241 17.4072C10.9327 17.3612 11.3336 17.2325 11.7034 17.0219C11.7381 17.0093 11.7752 17.0087 11.8075 16.9896L12.2341 16.7335C12.5285 16.5564 12.8582 16.469 13.1885 16.4654C13.5188 16.469 13.8485 16.5564 14.1435 16.7335L14.5701 16.9896C15.0231 17.2606 15.5269 17.4013 16.0337 17.4222C16.0438 17.4228 16.0546 17.424 16.0648 17.424C16.2395 17.4294 16.4142 17.424 16.5877 17.3995C16.6871 17.3869 16.7834 17.3618 16.8809 17.3396C16.9282 17.3283 16.9755 17.3181 17.0221 17.3043C17.2878 17.2307 17.5481 17.1344 17.7904 16.989L18.217 16.7329C18.5114 16.5558 18.8411 16.4684 19.1714 16.4648C19.5017 16.4684 19.8314 16.5558 20.1264 16.7329L20.553 16.989C21.0472 17.2852 21.6019 17.4306 22.156 17.4282C22.1649 17.4282 22.1745 17.43 22.1835 17.43C22.7208 17.43 23.2587 17.29 23.741 17.0087L24.915 16.487C24.9401 16.4756 24.958 16.4541 24.9814 16.4397L25.0729 16.399L24.0767 30.7032Z" fill="#4E60FF"/>
<path d="M4.2336 25.7315H8.42205C8.75233 25.7315 9.02039 25.464 9.02039 25.1331C9.02039 24.8023 8.75233 24.5348 8.42205 24.5348H4.2336C3.90331 24.5348 3.63525 24.8023 3.63525 25.1331C3.63525 25.464 3.90331 25.7315 4.2336 25.7315Z" fill="#4E60FF"/>
<path d="M4.2336 28.1249H9.61874C9.94903 28.1249 10.2171 27.8574 10.2171 27.5265C10.2171 27.1956 9.94903 26.9282 9.61874 26.9282H4.2336C3.90331 26.9282 3.63525 27.1956 3.63525 27.5265C3.63525 27.8574 3.90331 28.1249 4.2336 28.1249Z" fill="#4E60FF"/>
<path d="M10.8154 29.3216H4.2336C3.90331 29.3216 3.63525 29.5891 3.63525 29.9199C3.63525 30.2508 3.90331 30.5183 4.2336 30.5183H10.8154C11.1457 30.5183 11.4138 30.2508 11.4138 29.9199C11.4138 29.5891 11.1457 29.3216 10.8154 29.3216Z" fill="#4E60FF"/>
<path d="M14.4056 29.3216H13.2089C12.8787 29.3216 12.6106 29.5891 12.6106 29.9199C12.6106 30.2508 12.8787 30.5183 13.2089 30.5183H14.4056C14.7359 30.5183 15.004 30.2508 15.004 29.9199C15.004 29.5891 14.7359 29.3216 14.4056 29.3216Z" fill="#4E60FF"/>
</svg>
